<svg width="784" height="848" xmlns="http://www.w3.org/2000/svg" xmlns:xlink="http://www.w3.org/1999/xlink" xml:space="preserve" overflow="hidden"><g transform="translate(-1402 -806)"><g><path d="M1795 808 2185 1588 1405 1588Z" fill="#F3F943" fill-rule="evenodd" fill-opacity="1"/><path d="M1406 1587C1406 1551.1 1580.39 1522 1795.5 1522 2010.61 1522 2185 1551.1 2185 1587 2185 1622.9 2010.61 1652 1795.5 1652 1580.39 1652 1406 1622.9 1406 1587Z" fill="#D6DB40" fill-rule="evenodd" fill-opacity="1"/><g><g><g><path d="M593.539 0 741.923 0 370.962 639.909 0 0 283.786 0 370.962 148.385 456.283 0 593.539 0Z" fill="#41B883" fill-rule="nonzero" fill-opacity="1" transform="matrix(1.00415 0 0 1 1423 944.546)"/><path d="M0 0 370.962 639.909 741.923 0 593.539 0 370.962 383.945 146.53 0 0 0Z" fill="#41B883" fill-rule="nonzero" fill-opacity="1" transform="matrix(1.00415 0 0 1 1423 944.546)"/><path d="M146.53 0 370.962 385.8 593.539 0 456.283 0 370.962 148.385 283.786 0 146.53 0Z" fill="#35495E" fill-rule="nonzero" fill-opacity="1" transform="matrix(1.00415 0 0 1 1423 944.546)"/></g></g></g><path d="M2019 944 2168 944 2004.04 1227 1935.03 1088.94ZM1423 944 1570.14 944 1655.44 1090.01 1586.96 1227Z" fill="#35986D" fill-rule="evenodd" fill-opacity="1"/><path d="M1882.13 944 2020 944 1935.69 1090 1871.68 962.155ZM1571 944 1708.87 944 1719.42 961.946 1655.63 1089.35Z" fill="#293949" fill-rule="evenodd" fill-opacity="1"/></g></g></svg>